<?xml version="1.0" encoding="utf-8"?>
<svg viewBox="0 0 228 52" fill="none" xmlns="http://www.w3.org/2000/svg">
<path d="M61.8516 21.7672L64.8249 16.3013H69.8149L64.755 24.4593L69.9442 32.8077H64.9386L61.9207 27.224L58.8977 32.8077H53.907L59.0962 24.4593L54.0363 16.3013H59.0315L61.8516 21.7672ZM77.744 26.9294H75.3801V32.7578H71.0544V16.3013H78.1408C80.3062 16.3013 81.947 16.7228 83.1308 17.6247C83.7305 18.0601 84.2098 18.6185 84.5294 19.2548C84.8482 19.891 84.9998 20.5871 84.97 21.2867C85.0072 22.2961 84.7345 23.2947 84.1816 24.1693C83.6027 24.9826 82.783 25.6287 81.8177 26.032L85.5593 32.6943V32.8757H80.8963L77.744 26.9294ZM75.4447 23.8702H78.2054C78.5413 23.9024 78.8817 23.8651 79.1997 23.7607C79.5178 23.6563 79.8068 23.4877 80.0439 23.2673C80.4809 22.7997 80.7135 22.201 80.6978 21.5859C80.7216 21.2795 80.6763 20.9718 80.5633 20.6824C80.4511 20.393 80.2743 20.1281 80.0439 19.9044C79.8024 19.6895 79.5133 19.5248 79.196 19.4216C78.8787 19.3183 78.5406 19.279 78.2054 19.3062H75.4447V23.8702ZM91.7346 27.1695V32.7578H87.4082V16.3013H94.6335C95.9035 16.2775 97.1624 16.5242 98.3105 17.022C99.3167 17.4655 100.173 18.1499 100.788 19.0025C101.383 19.8867 101.679 20.9113 101.641 21.9485C101.667 22.6797 101.51 23.4067 101.18 24.0731C100.85 24.7396 100.356 25.3277 99.738 25.7918C98.4888 26.7526 96.764 27.233 94.5488 27.233H91.7294L91.7346 27.1695ZM91.7346 24.1103H94.554C94.9011 24.1424 95.2511 24.1051 95.5803 24.001C95.9102 23.8969 96.2112 23.7285 96.4623 23.5075C96.6964 23.2985 96.8763 23.0445 96.9892 22.7638C97.1029 22.4831 97.146 22.1829 97.1163 21.885C97.1609 21.2125 96.9275 20.5491 96.4623 20.0268C96.2349 19.7875 95.9518 19.5984 95.633 19.4736C95.315 19.3488 94.9694 19.2915 94.6231 19.3062H91.7346V24.1103ZM114.035 29.753H121.603V32.8167H109.659V16.3013H113.995V29.753H114.035ZM134.393 25.7918H127.584V29.753H135.662V32.8167H123.273V16.3013H135.751V19.3651H127.673V22.8458H134.438L134.393 25.7918ZM137.149 32.7578V16.3013H142.991C144.523 16.2865 146.032 16.6348 147.372 17.312C148.645 17.9657 149.679 18.9478 150.346 20.1355C151.06 21.3777 151.444 22.7567 151.466 24.1602V24.9397C151.497 26.3587 151.136 27.7619 150.415 29.0187C149.716 30.2074 148.672 31.1958 147.396 31.8743C146.12 32.5527 144.665 32.8946 143.19 32.8621H137.173L137.149 32.7578ZM141.485 19.3651V29.753H142.971C143.527 29.7811 144.081 29.6866 144.589 29.4776C145.096 29.2686 145.541 28.9511 145.886 28.5519C146.546 27.7149 146.876 26.5139 146.876 24.9488V24.2282C146.876 22.6056 146.546 21.4046 145.886 20.6251C145.532 20.2206 145.077 19.9003 144.56 19.6911C144.042 19.482 143.476 19.3904 142.912 19.424H141.47L141.485 19.3651ZM168.102 30.7727C167.273 31.531 166.252 32.0886 165.129 32.3952C163.755 32.8188 162.311 33.0228 160.862 32.998C158.498 32.998 156.589 32.3363 155.212 31.0129C153.834 29.6895 153.046 27.8403 152.913 25.4881V24.0469C152.888 22.5832 153.202 21.1314 153.834 19.7866C154.417 18.6293 155.351 17.6493 156.526 16.963C157.759 16.3023 159.17 15.9695 160.599 16.0022C162.829 16.0022 164.603 16.4826 165.852 17.4435C167.101 18.4043 167.834 19.7866 168.018 21.6448H163.815C163.758 20.8965 163.406 20.1926 162.824 19.6642C162.241 19.233 161.501 19.0193 160.752 19.066C160.243 19.0546 159.738 19.1648 159.289 19.3857C158.84 19.6066 158.461 19.9306 158.19 20.3259C157.514 21.4301 157.196 22.688 157.274 23.9517V24.9715C157.274 26.594 157.601 27.8539 158.19 28.6969C158.78 29.5399 159.766 29.9569 161.079 29.9569C162.002 30.0152 162.915 29.7584 163.642 29.2363V26.6529H160.624V23.9336H167.978V30.7727H168.102ZM181.566 25.7873H174.738V29.7484H182.81V32.8122H170.421V16.3013H182.9V19.3651H174.822V22.8458H181.651V25.7918L181.566 25.7873ZM191.086 26.9248H188.723V32.7578H184.322V16.3013H191.413C193.584 16.3013 195.224 16.7228 196.404 17.6247C197.005 18.0593 197.484 18.6176 197.804 19.2541C198.123 19.8905 198.273 20.587 198.243 21.2867C198.28 22.2961 198.007 23.2947 197.454 24.1693C196.875 24.9826 196.056 25.6287 195.09 26.032L198.837 32.6943V32.8757H194.174L191.086 26.9248ZM188.723 23.8656H191.478C191.814 23.898 192.154 23.8605 192.472 23.7562C192.79 23.6518 193.08 23.4832 193.317 23.2628C193.747 22.7943 193.974 22.1976 193.956 21.5859C193.979 21.2795 193.933 20.9722 193.82 20.683C193.707 20.3937 193.531 20.1287 193.302 19.9044C193.062 19.6913 192.776 19.5277 192.461 19.4245C192.146 19.3213 191.811 19.2809 191.478 19.3062H188.717L188.723 23.8656Z" fill="black"/>
<path d="M9.82733 8.48276H10.6047V6H9.82733C9.00323 5.9991 8.18707 6.20005 7.42553 6.59137C6.66403 6.98269 5.9721 7.55669 5.38935 8.28053C4.80664 9.00436 4.34453 9.86383 4.02948 10.8097C3.71444 11.7557 3.55266 12.7694 3.55339 13.7931V19.4483C3.55506 20.6457 3.18791 21.7985 2.52722 22.6705C1.86653 23.5425 0.962336 24.0675 0 24.1379L0.0555216 25.3793L0 26.6207C0.962336 26.6911 1.86653 27.2161 2.52722 28.0881C3.18791 28.9601 3.55506 30.1129 3.55339 31.3103V37.8276C3.55044 39.9902 4.23888 42.0658 5.46736 43.5982C6.69584 45.1306 8.36391 45.9945 10.105 46V43.5173C8.8977 43.5163 7.74011 42.9202 6.88645 41.8599C6.03279 40.7995 5.5529 39.3616 5.55215 37.8621V31.3103C5.55303 30.1407 5.3232 28.9885 4.88282 27.9546C4.44244 26.9207 3.80491 26.0365 3.02593 25.3793C3.80269 24.7193 4.43853 23.8345 4.87866 22.8012C5.31875 21.768 5.54991 20.6172 5.55215 19.4483V13.7931C5.55728 12.3867 6.00935 11.0397 6.80998 10.0451C7.61065 9.05063 8.69506 8.48911 9.82733 8.48276Z" fill="black"/>
<path d="M33.477 8.48276H32.6977V6H33.477C35.1415 6.00548 36.736 6.8294 37.9104 8.29069C39.0847 9.75199 39.7427 11.7311 39.7397 13.7931V19.4483C39.738 20.6457 40.1061 21.7985 40.7686 22.6705C41.431 23.5425 42.3378 24.0675 43.3023 24.1379L43.2468 25.3793L43.3023 26.6207C42.3378 26.6911 41.431 27.2161 40.7686 28.0881C40.1061 28.9601 39.738 30.1129 39.7397 31.3103V37.8276C39.7427 39.9902 39.0524 42.0658 37.8207 43.5982C36.589 45.1306 34.9165 45.9945 33.1709 46V43.5172C34.3813 43.5163 35.5419 42.9202 36.3978 41.8599C37.2537 40.7995 37.7349 39.3616 37.7357 37.8621V31.3103C37.7348 30.1407 37.9652 28.9885 38.4068 27.9546C38.8483 26.9207 39.4875 26.0365 40.2685 25.3793C39.4897 24.7193 38.8522 23.8345 38.4109 22.8012C37.9697 21.768 37.7379 20.6172 37.7357 19.4483V13.7931C37.7386 13.0976 37.6306 12.4083 37.418 11.7646C37.2053 11.1209 36.8922 10.5356 36.4966 10.0422C36.1009 9.54884 35.6305 9.1571 35.1123 8.88949C34.5942 8.62188 34.0384 8.48366 33.477 8.48276Z" fill="black"/>
<path d="M28.867 16H31.814L25.6722 23.0914C24.5703 24.3198 23.1372 25 21.6511 25C20.1651 25 18.732 24.3198 17.6301 23.0914L11.4884 16H14.4353L19.0898 21.361C19.7849 22.1469 20.694 22.5829 21.6374 22.5829C22.5808 22.5829 23.4899 22.1469 24.1849 21.361L28.867 16Z" fill="black"/>
<path d="M14.4273 36H11.4884L17.641 28.1346C18.7339 26.762 20.1653 26 21.6512 26C23.137 26 24.5685 26.762 25.6614 28.1346L31.814 36H28.875L24.2056 30.0073C23.5124 29.1399 22.6058 28.6585 21.6649 28.6585C20.724 28.6585 19.8174 29.1399 19.1242 30.0073L14.4273 36Z" fill="black"/>
</svg>
