<svg  viewBox="0 0 228 49" fill="none" xmlns="http://www.w3.org/2000/svg">
<path d="M87.4731 9.92537L91.1506 2.44839H97.3458L91.0584 13.5996L97.5139 24.9387H91.2594L87.4764 17.3232L83.6934 24.9387H77.4522L83.8945 13.5996L77.6236 2.44839H83.8022L87.4797 9.92537H87.4731Z" fill="white"/>
<path d="M107.159 16.9838H104.223V24.9387H98.8023V2.44839H107.653C110.319 2.44839 112.405 3.03824 113.908 4.22125C115.41 5.40425 116.162 7.07495 116.162 9.23666C116.162 10.8019 115.845 12.097 115.213 13.1251C114.58 14.1532 113.588 14.9869 112.24 15.6229L116.936 24.7047V24.9354H111.13L107.159 16.9805V16.9838ZM104.223 12.8153H107.653C108.682 12.8153 109.459 12.5451 109.976 12.0014C110.497 11.461 110.758 10.7031 110.758 9.73424C110.758 8.76543 110.494 8.00422 109.97 7.45062C109.446 6.89702 108.672 6.6235 107.653 6.6235H104.223V12.8186V12.8153Z" fill="white"/>
<path d="M124.225 17.3101V24.942H118.804V2.44839H127.778C129.498 2.44839 131.02 2.76474 132.341 3.39744C133.663 4.03013 134.687 4.93303 135.416 6.09955C136.144 7.26608 136.504 8.59408 136.504 10.0769C136.504 12.2716 135.719 14.0247 134.147 15.3362C132.575 16.6478 130.423 17.3068 127.682 17.3068H124.222L124.225 17.3101ZM124.225 13.1218H127.778C128.829 13.1218 129.63 12.8582 130.179 12.3342C130.731 11.8103 131.007 11.0688 131.007 10.1099C131.007 9.05871 130.723 8.22171 130.156 7.59232C129.589 6.96292 128.819 6.64328 127.84 6.63339H124.225V13.1218Z" fill="white"/>
<path d="M144.501 20.7701H153.939V24.942H139.08V2.44839H144.501V20.7668V20.7701Z" fill="white"/>
<path d="M176.785 15.3955H168.257V20.7701H178.326V24.942H162.832V2.44839H178.357V6.63339H168.253V11.3753H176.782V15.3922L176.785 15.3955Z" fill="white"/>
<path d="M189.9 18.8226L194.378 2.44839H200.435L192.866 24.9387H186.934L179.427 2.44839H185.435L189.9 18.8226Z" fill="white"/>
<path d="M209.032 2.44839L214.052 18.0943L219.057 2.44839H226.194V24.9387H220.758V19.686L221.281 8.93679L215.844 24.9387H212.258L206.805 8.92032L207.329 19.686V24.9387H201.908V2.44839H209.03H209.032Z" fill="white"/>
<path d="M36.581 26.863C40.7562 26.863 44.806 28.3394 47.8904 31.2326L65.1741 47.4223H56.8865L43.7812 35.1506C41.8535 33.3515 39.2832 32.3893 36.5842 32.3893C33.8854 32.3893 31.3151 33.3515 29.3874 35.1506L16.2821 47.4223H7.99451L25.2782 31.2326C28.3626 28.3427 32.4092 26.863 36.5877 26.863H36.581ZM36.581 23.0109C32.4059 23.0109 28.356 21.5347 25.2717 18.6414L7.99122 2.44839H16.2788L29.3841 14.72C31.3118 16.5193 33.8821 17.4814 36.581 17.4814C39.2799 17.4814 41.8502 16.5193 43.778 14.72L56.8832 2.44839H65.1708L47.8871 18.6381C44.8027 21.5281 40.7562 23.0076 36.5777 23.0076L36.581 23.0109Z" fill="white"/>
<path d="M22.1248 24.9387L4.06991 40.2287C2.72215 41.448 1.17996 40.8712 1.17996 39.072V10.8019C1.17996 9.00268 2.72215 8.42601 4.06991 9.64526L22.1248 24.9353V24.9387Z" fill="white"/>
<path d="M86.6787 43.7249C86.6787 43.0955 86.458 42.6111 86.0164 42.2718C85.5747 41.9324 84.7774 41.5896 83.6272 41.2403C82.4739 40.8943 81.5611 40.5088 80.879 40.0838C79.5774 39.2665 78.9249 38.1988 78.9249 36.8839C78.9249 35.7307 79.3929 34.7849 80.332 34.0369C81.2712 33.2922 82.4904 32.9165 83.9897 32.9165C84.985 32.9165 85.8714 33.101 86.649 33.4668C87.4268 33.8325 88.0397 34.3566 88.4845 35.032C88.9294 35.7076 89.1535 36.4589 89.1535 37.2828H86.6787C86.6787 36.538 86.4447 35.9515 85.9769 35.5296C85.5089 35.1079 84.8399 34.8969 83.97 34.8969C83.1594 34.8969 82.5299 35.0717 82.0818 35.4176C81.6336 35.7636 81.4095 36.248 81.4095 36.8708C81.4095 37.3948 81.6501 37.8297 82.1345 38.1823C82.6189 38.5316 83.4164 38.8744 84.5302 39.2038C85.644 39.5334 86.537 39.909 87.2093 40.3342C87.8814 40.7559 88.3757 41.2403 88.6921 41.7874C89.0084 42.3344 89.1634 42.9736 89.1634 43.7052C89.1634 44.8948 88.7086 45.8439 87.7926 46.5458C86.8797 47.2476 85.6407 47.6002 84.0787 47.6002C83.0441 47.6002 82.095 47.4091 81.2284 47.0269C80.3617 46.6445 79.6861 46.114 79.205 45.4419C78.7239 44.7696 78.4833 43.9821 78.4833 43.0857H80.968C80.968 43.8963 81.2349 44.5257 81.772 44.9706C82.3092 45.4154 83.077 45.6395 84.0787 45.6395C84.9421 45.6395 85.5912 45.4649 86.0262 45.1156C86.4613 44.7663 86.6787 44.3016 86.6787 43.7283V43.7249Z" fill="white"/>
<path d="M93.7602 47.4058H91.2855V33.1143H93.7602V47.4058Z" fill="white"/>
<path d="M96.6108 47.4058V33.1143H100.832C102.094 33.1143 103.215 33.3943 104.193 33.9577C105.172 34.5213 105.93 35.3188 106.467 36.3534C107.004 37.3882 107.271 38.5711 107.271 39.9057V40.6208C107.271 41.9752 107.001 43.1648 106.46 44.1929C105.92 45.2211 105.152 46.0119 104.154 46.5688C103.155 47.1256 102.012 47.4025 100.723 47.4025H96.6108V47.4058ZM99.0954 35.1177V45.422H100.713C102.015 45.422 103.013 45.0134 103.712 44.1994C104.407 43.3856 104.763 42.2157 104.776 40.6901V39.8959C104.776 38.3437 104.44 37.1608 103.765 36.3436C103.089 35.5263 102.114 35.1177 100.829 35.1177H99.0921H99.0954Z" fill="white"/>
<path d="M117.895 41.0261H112.026V45.422H118.887V47.4058H109.542V33.1143H118.818V35.1177H112.026V39.0621H117.895V41.0261Z" fill="white"/>
<path d="M131.61 42.7528C131.465 44.2786 130.905 45.4682 129.922 46.3217C128.941 47.1752 127.636 47.6035 126.008 47.6035C124.867 47.6035 123.866 47.3333 122.999 46.7929C122.132 46.2524 121.464 45.4847 120.992 44.4928C120.521 43.4977 120.277 42.3442 120.258 41.0294V39.6948C120.258 38.3471 120.495 37.1608 120.973 36.1327C121.45 35.1046 122.136 34.3137 123.029 33.7568C123.922 33.1999 124.954 32.9231 126.127 32.9231C127.704 32.9231 128.974 33.3514 129.936 34.2049C130.898 35.0584 131.458 36.2677 131.613 37.833H129.138C129.02 36.8049 128.72 36.0635 128.238 35.6087C127.758 35.154 127.052 34.9266 126.123 34.9266C125.043 34.9266 124.215 35.3221 123.636 36.1096C123.055 36.8971 122.759 38.0571 122.746 39.5828V40.8515C122.746 42.397 123.022 43.5767 123.576 44.3873C124.13 45.198 124.94 45.6066 126.005 45.6066C126.98 45.6066 127.712 45.3858 128.203 44.9475C128.693 44.5093 129.003 43.781 129.135 42.7595H131.61V42.7528Z" fill="white"/>
<path d="M144.975 47.4058H142.501V41.0657H136.111V47.4058H133.626V33.1143H136.111V39.0621H142.501V33.1143H144.975V47.4058Z" fill="white"/>
<path d="M155.882 44.0775H150.347L149.186 47.4058H146.606L152.004 33.1143H154.232L159.639 47.4058H157.049L155.882 44.0775ZM151.046 42.074H155.188L153.115 36.1458L151.046 42.074Z" fill="white"/>
<path d="M163.682 47.4058H161.208V33.1143H163.682V47.4058Z" fill="white"/>
<path d="M177.869 47.4058H175.384L169.014 37.2663V47.4058H166.529V33.1143H169.014L175.404 43.2933V33.1143H177.869V47.4058Z" fill="white"/>
</svg>
