<svg width="28" height="28" viewBox="0 0 28 28" fill="none" xmlns="http://www.w3.org/2000/svg">
<path d="M6.44055 1.73793H6.94998V2.14009e-06H6.44055C5.90045 -0.00063283 5.36557 0.140036 4.86648 0.413957C4.36741 0.687883 3.91394 1.08968 3.53202 1.59637C3.15013 2.10305 2.84728 2.70468 2.6408 3.36682C2.43434 4.02896 2.32831 4.7386 2.32879 5.45516V9.4138C2.32988 10.252 2.08927 11.059 1.65627 11.6694C1.22327 12.2797 0.630687 12.6473 0 12.6966L0.0363872 13.5655L0 14.4345C0.630687 14.4838 1.22327 14.8513 1.65627 15.4617C2.08927 16.072 2.32988 16.8791 2.32879 17.7172V22.2793C2.32685 23.7931 2.77804 25.2461 3.58315 26.3187C4.38826 27.3915 5.48146 27.9962 6.62249 28V26.2621C5.83129 26.2614 5.07265 25.8441 4.51318 25.1019C3.95371 24.3597 3.63921 23.3532 3.63872 22.3035V17.7172C3.63929 16.8985 3.48867 16.092 3.20006 15.3682C2.91145 14.6445 2.49363 14.0256 1.98311 13.5655C2.49217 13.1035 2.90888 12.4842 3.19733 11.7609C3.48575 11.0376 3.63725 10.2321 3.63872 9.4138V5.45516C3.64208 4.47069 3.93836 3.52776 4.46306 2.8316C4.9878 2.13544 5.69849 1.74238 6.44055 1.73793Z" fill="black"/>
<path d="M21.5777 1.73793H21.0683V0H21.5777C22.6657 0.00383658 23.708 0.580578 24.4756 1.60348C25.2431 2.62639 25.6732 4.01177 25.6713 5.45516V9.4138C25.6702 10.252 25.9108 11.059 26.3438 11.6694C26.7768 12.2797 27.3695 12.6473 28 12.6966L27.9637 13.5655L28 14.4345C27.3695 14.4838 26.7768 14.8513 26.3438 15.4617C25.9108 16.072 25.6702 16.8791 25.6713 17.7172V22.2793C25.6732 23.7931 25.222 25.2461 24.4169 26.3187C23.6118 27.3915 22.5186 27.9962 21.3776 28V26.2621C22.1688 26.2614 22.9274 25.8441 23.4869 25.1019C24.0463 24.3597 24.3609 23.3532 24.3614 22.3035V17.7172C24.3608 16.8985 24.5114 16.092 24.8 15.3682C25.0886 14.6445 25.5065 14.0256 26.017 13.5655C25.5079 13.1035 25.0912 12.4842 24.8027 11.7609C24.5143 11.0376 24.3628 10.2321 24.3614 9.4138V5.45516C24.3633 4.96834 24.2927 4.48578 24.1537 4.03522C24.0147 3.58465 23.8101 3.17493 23.5514 2.82956C23.2928 2.48419 22.9853 2.20997 22.6466 2.02264C22.3079 1.83531 21.9447 1.73856 21.5777 1.73793Z" fill="black"/>
<path d="M18.7759 6.99997H20.7226L16.6654 12.0448C15.9375 12.9187 14.9909 13.4025 14.0092 13.4025C13.0275 13.4025 12.0808 12.9187 11.3529 12.0448L7.29572 6.99997H9.24243L12.3172 10.8138C12.7763 11.3728 13.3769 11.6831 14.0001 11.6831C14.6233 11.6831 15.2238 11.3728 15.683 10.8138L18.7759 6.99997Z" fill="black"/>
<path d="M9.22418 21.0001H7.27747L11.3528 15.9311C12.0767 15.0465 13.0249 14.5554 14.0091 14.5554C14.9933 14.5554 15.9415 15.0465 16.6654 15.9311L20.7408 21.0001H18.794L15.7011 17.138C15.242 16.5789 14.6414 16.2687 14.0182 16.2687C13.395 16.2687 12.7944 16.5789 12.3353 17.138L9.22418 21.0001Z" fill="black"/>
</svg>
